<?xml version="1.0" encoding="UTF-8"?>
<!DOCTYPE svg PUBLIC "-//W3C//DTD SVG 1.1//EN" "http://www.w3.org/Graphics/SVG/1.1/DTD/svg11.dtd">
<svg xmlns="http://www.w3.org/2000/svg" version="1.1" width="1024px" height="1024px" style="shape-rendering:geometricPrecision; text-rendering:geometricPrecision; image-rendering:optimizeQuality; fill-rule:evenodd; clip-rule:evenodd" xmlns:xlink="http://www.w3.org/1999/xlink">
<g><path style="opacity:1" fill="#2cbf6d" d="M 530.5,43.5 C 515.335,44.3497 500.001,45.0164 484.5,45.5C 480.982,45.4984 477.649,45.1651 474.5,44.5C 493.154,43.6633 511.82,43.3299 530.5,43.5 Z"/></g>
<g><path style="opacity:1" fill="#2bb96a" d="M 43.5,478.5 C 44.1644,481.146 44.4978,483.979 44.5,487C 44.0081,500.668 43.3414,514.168 42.5,527.5C 42.2972,511.15 42.6305,494.816 43.5,478.5 Z"/></g>
<g><path style="opacity:1" fill="#259c59" d="M 530.5,43.5 C 662.917,50.469 773.75,102.469 863,199.5C 961.634,315.329 998.3,448.663 973,599.5C 942.992,740.721 866.159,847.555 742.5,920C 625.102,984.443 502.102,997.776 373.5,960C 241.379,916.365 145.212,831.865 85,706.5C 59.0402,649.66 44.8736,589.993 42.5,527.5C 43.3414,514.168 44.0081,500.668 44.5,487C 44.4978,483.979 44.1644,481.146 43.5,478.5C 53.3691,353.273 104.036,248.106 195.5,163C 275.293,93.4642 368.293,53.9642 474.5,44.5C 477.649,45.1651 480.982,45.4984 484.5,45.5C 500.001,45.0164 515.335,44.3497 530.5,43.5 Z"/></g>
<g><path style="opacity:1" fill="#fefefe" d="M 310.5,339.5 C 337.298,366.799 364.298,393.965 391.5,421C 392.928,421.579 394.262,421.412 395.5,420.5C 396.79,419.942 397.623,418.942 398,417.5C 398.667,413.5 398.667,409.5 398,405.5C 387.441,348.312 376.941,291.145 366.5,234C 390.286,243.384 413.953,253.384 437.5,264C 438.5,264.667 439.5,264.667 440.5,264C 464.631,224.244 488.131,184.077 511,143.5C 535,184.167 559,224.833 583,265.5C 606.858,254.934 630.691,244.268 654.5,233.5C 645.999,292.904 635.832,352.237 624,411.5C 622.703,416.117 623.87,419.95 627.5,423C 628.5,423.667 629.5,423.667 630.5,423C 658.013,394.654 685.68,366.487 713.5,338.5C 720.272,355.047 726.772,371.713 733,388.5C 733.519,389.516 734.353,390.182 735.5,390.5C 770.535,382.96 805.535,375.293 840.5,367.5C 830.582,407.34 820.582,447.174 810.5,487C 811.34,488.767 812.673,490.101 814.5,491C 828.826,498.494 842.826,506.494 856.5,515C 800.295,564.207 743.795,613.04 687,661.5C 684.099,665.601 683.766,669.935 686,674.5C 691.331,691.155 696.665,707.822 702,724.5C 702.667,726.5 702.667,728.5 702,730.5C 645.951,722.03 589.785,714.03 533.5,706.5C 525.714,707.529 522.714,712.029 524.5,720C 527.502,770.868 530.836,821.701 534.5,872.5C 519.5,872.5 504.5,872.5 489.5,872.5C 491.772,829.492 494.272,786.492 497,743.5C 497.957,731.736 497.623,720.07 496,708.5C 492.744,706.571 489.244,706.071 485.5,707C 430.761,714.415 376.094,722.248 321.5,730.5C 320.386,729.277 320.219,727.944 321,726.5C 326.667,708.167 332.333,689.833 338,671.5C 338.912,667.548 338.245,663.881 336,660.5C 279.7,611.941 223.533,563.275 167.5,514.5C 182.701,505.737 197.701,496.737 212.5,487.5C 202.33,447.488 192.497,407.488 183,367.5C 218.298,376.032 253.798,383.699 289.5,390.5C 295.302,372.931 301.802,355.597 309,338.5C 309.383,339.056 309.883,339.389 310.5,339.5 Z"/></g>
<g><path style="opacity:1" fill="#14893d" d="M 343.5,517.5 C 390.833,517.5 438.167,517.5 485.5,517.5C 485.5,526.833 485.5,536.167 485.5,545.5C 438.167,545.5 390.833,545.5 343.5,545.5C 343.5,536.167 343.5,526.833 343.5,517.5 Z"/></g>
<g><path style="opacity:1" fill="#259c5a" d="M 345.5,518.5 C 391.833,518.5 438.167,518.5 484.5,518.5C 484.5,526.833 484.5,535.167 484.5,543.5C 438.167,543.5 391.833,543.5 345.5,543.5C 345.5,535.167 345.5,526.833 345.5,518.5 Z"/></g>
<g><path style="opacity:1" fill="#259a57" d="M 570.5,465.5 C 588.698,464.729 604.198,470.729 617,483.5C 636.924,462.197 658.757,460.031 682.5,477C 701.339,496.537 707.839,519.704 702,546.5C 691.199,585.141 666.365,599.975 627.5,591C 618.168,586.494 610.168,580.327 603.5,572.5C 586.538,594.325 565.871,598.825 541.5,586C 526.575,571.411 519.575,553.578 520.5,532.5C 520.632,511.079 528.298,492.913 543.5,478C 551.575,471.626 560.575,467.459 570.5,465.5 Z"/></g>
<g><path style="opacity:1" fill="#fdfefd" d="M 650.5,492.5 C 658.679,492.506 665.179,495.84 670,502.5C 680.252,520.715 679.919,538.715 669,556.5C 658.65,568.492 646.484,570.659 632.5,563C 625.654,557.457 620.654,550.623 617.5,542.5C 621.119,531.144 625.619,520.144 631,509.5C 635.546,501.445 642.046,495.779 650.5,492.5 Z"/></g>
<g><path style="opacity:1" fill="#fdfefd" d="M 573.5,492.5 C 585.758,492.292 595.091,497.292 601.5,507.5C 596.224,522.718 590.391,537.718 584,552.5C 580.043,560.296 573.877,565.296 565.5,567.5C 558.602,566.798 554.102,563.132 552,556.5C 547.755,542.271 547.421,527.937 551,513.5C 554.907,502.42 562.407,495.42 573.5,492.5 Z"/></g>
<g><path style="opacity:1" fill="#0b8438" d="M 395.5,420.5 C 394.262,421.412 392.928,421.579 391.5,421C 364.298,393.965 337.298,366.799 310.5,339.5C 337.633,365.126 364.633,391.626 391.5,419C 393.058,419.21 394.391,419.71 395.5,420.5 Z"/></g>
</svg>